<svg width="138" height="134" viewBox="0 0 138 134" fill="none" xmlns="http://www.w3.org/2000/svg">
<path d="M19.3966 67H52.4655M52.4655 67L52.9946 66.9811C57.9668 66.6446 61.9138 61.5819 61.9138 56.5287V9.97631C61.9138 7.46304 60.9183 5.0527 59.1465 3.27555C57.3746 1.49839 54.9714 0.5 52.4655 0.5C49.9597 0.5 47.5565 1.49839 45.7846 3.27555C44.0127 5.0527 43.0172 7.46304 43.0172 9.97631V26.105H40.4072C40.8744 24.1058 40.6816 22.0085 39.8577 20.1287C39.0338 18.2489 37.6234 16.6884 35.8389 15.682C34.0543 14.6756 31.9921 14.2779 29.9626 14.5486C27.9332 14.8193 26.0463 15.7438 24.586 17.183L24.1797 17.5834C21.9158 19.8148 20.3653 22.6715 19.7256 25.7896C19.086 28.9078 19.3862 32.1464 20.5879 35.0929C21.7897 38.0394 23.8387 40.5605 26.4739 42.3351C29.1091 44.1097 32.2113 45.0574 35.3854 45.0576H43.0172V47.0524H17.0345C12.6493 47.0524 8.44366 48.7996 5.34284 51.9096C2.24202 55.0196 0.5 59.2377 0.5 63.6359V67V70.3641C0.5 74.7623 2.24202 78.9804 5.34284 82.0904C8.44366 85.2004 12.6493 86.9476 17.0345 86.9476H43.0172V88.9424H35.3854C32.2113 88.9426 29.1091 89.8904 26.4739 91.6649C23.8387 93.4395 21.7897 95.9606 20.5879 98.9071C19.3862 101.854 19.086 105.092 19.7256 108.21C20.3653 111.329 21.9158 114.185 24.1797 116.417L24.586 116.817C26.0463 118.256 27.9332 119.181 29.9626 119.451C31.9921 119.722 34.0543 119.324 35.8389 118.318C37.6234 117.312 39.0338 115.751 39.8577 113.871C40.6816 111.992 40.8744 109.894 40.4072 107.895H43.0172V124.024C43.0172 126.537 44.0127 128.947 45.7846 130.724C47.5565 132.502 49.9597 133.5 52.4655 133.5C54.9714 133.5 57.3746 132.502 59.1465 130.724C60.9183 128.947 61.9138 126.537 61.9138 124.024V77.4713C61.9138 72.4181 57.9668 67.3554 52.9946 67.019C52.8198 67.0063 52.6435 67 52.4655 67ZM118.603 67H85.5345M85.5345 67L85.0054 67.019C80.0356 67.3554 76.0862 72.4181 76.0862 77.4713V124.024C76.0862 126.537 77.0816 128.947 78.8535 130.724C80.6254 132.502 83.0286 133.5 85.5345 133.5C88.0403 133.5 90.4435 132.502 92.2154 130.724C93.9873 128.947 94.9828 126.537 94.9828 124.024V107.895H97.5928C97.1256 109.894 97.3184 111.992 98.1423 113.871C98.9662 115.751 100.377 117.312 102.161 118.318C103.946 119.324 106.008 119.722 108.037 119.451C110.067 119.181 111.954 118.256 113.414 116.817L113.82 116.417C116.084 114.185 117.635 111.329 118.274 108.21C118.914 105.092 118.614 101.854 117.412 98.9071C116.21 95.9606 114.161 93.4395 111.526 91.6649C108.891 89.8904 105.789 88.9426 102.615 88.9424H94.9828V86.9476H120.966C125.351 86.9476 129.556 85.2004 132.657 82.0904C135.758 78.9804 137.5 74.7623 137.5 70.3641V67V63.6359C137.5 59.2377 135.758 55.0196 132.657 51.9096C129.556 48.7996 125.351 47.0524 120.966 47.0524H94.9828V45.0576H102.615C105.789 45.0574 108.891 44.1097 111.526 42.3351C114.161 40.5605 116.21 38.0394 117.412 35.0929C118.614 32.1464 118.914 28.9078 118.274 25.7896C117.635 22.6715 116.084 19.8148 113.82 17.5834L113.414 17.183C111.954 15.7438 110.067 14.8193 108.037 14.5486C106.008 14.2779 103.946 14.6756 102.161 15.682C100.377 16.6884 98.9662 18.2489 98.1423 20.1287C97.3184 22.0085 97.1256 24.1058 97.5928 26.105H94.9828V9.97631C94.9828 7.46304 93.9873 5.0527 92.2154 3.27555C90.4435 1.49839 88.0403 0.5 85.5345 0.5C83.0286 0.5 80.6254 1.49839 78.8535 3.27555C77.0816 5.0527 76.0862 7.46304 76.0862 9.97631V56.5287C76.0862 61.5819 80.0356 66.6446 85.0054 66.9811C85.1802 66.9937 85.3565 67 85.5345 67Z" stroke="#2C1E16" stroke-linecap="round" stroke-linejoin="round"/>
</svg>
