<svg width="106" height="130" viewBox="0 0 106 130" fill="none" xmlns="http://www.w3.org/2000/svg">
<path d="M0.5 128.666H104.932M5.24689 24.2349H100.185M5.24689 24.2349V128.666H100.185V24.2349M5.24689 24.2349H0.5M100.185 24.2349H104.932" stroke="#2C1E16" stroke-linecap="round" stroke-linejoin="round"/>
<path d="M90.6908 24.2344V9.99377H14.7406V24.2344M52.7157 9.99377V0.5M24.2344 38.4751V52.7157M43.222 38.4751V52.7157M62.2095 38.4751V52.7157M81.1971 38.4751V52.7157M24.2344 66.9564V81.1971M43.222 66.9564V81.1971M62.2095 66.9564V81.1971M81.1971 66.9564V81.1971M24.2344 95.4377V109.678M81.1971 95.4377V109.678M59.8361 95.4377H45.5954C44.3365 95.4377 43.1291 95.9378 42.2388 96.828C41.3486 97.7182 40.8485 98.9256 40.8485 100.185V128.666H64.583V100.185C64.583 98.9256 64.0828 97.7182 63.1926 96.828C62.3024 95.9378 61.095 95.4377 59.8361 95.4377Z" stroke="#2C1E16" stroke-linecap="round" stroke-linejoin="round"/>
</svg>
