<svg width="148" height="109" viewBox="0 0 148 109" fill="none" xmlns="http://www.w3.org/2000/svg">
<path d="M110.09 107.644H37.6414C35.6956 107.644 33.8295 106.871 32.4536 105.495C31.0778 104.119 30.3048 102.253 30.3048 100.308V97.5403C30.3048 87.0627 36.7862 77.6765 46.5829 73.9669C64.1623 67.3093 83.5693 67.3093 101.149 73.9669C105.934 75.7796 110.054 79.0058 112.962 83.2165C115.87 87.4273 117.427 92.4232 117.427 97.5403V100.308C117.427 102.253 116.654 104.119 115.278 105.495C113.902 106.871 112.036 107.644 110.09 107.644ZM62.7256 50.5059C66.0325 52.2224 69.6913 53.1515 73.4165 53.2206C77.1417 53.2897 80.8324 52.497 84.2007 50.9043C87.5689 49.3116 90.5235 46.962 92.8339 44.039C95.1442 41.116 96.7478 37.6986 97.5194 34.0536L97.9894 31.8388C98.7505 28.246 98.7405 24.5326 97.9599 20.944C97.1794 17.3554 95.6461 13.9733 93.4614 11.0212L92.7048 9.99871C90.526 7.05267 87.6867 4.65867 84.4149 3.00901C81.1431 1.35935 77.53 0.5 73.8658 0.5C70.2016 0.5 66.5885 1.35935 63.3167 3.00901C60.0449 4.65867 57.2056 7.05267 55.0268 9.99871L54.2702 11.0212C52.0855 13.9733 50.5522 17.3554 49.7717 20.944C48.9911 24.5326 48.9811 28.246 49.7422 31.8388L50.2122 34.0536C50.9529 37.5501 52.4592 40.839 54.6229 43.6837C56.7866 46.5285 59.5539 48.8584 62.7256 50.5059Z" stroke="#2C1E16" stroke-linecap="round" stroke-linejoin="round"/>
<path d="M0.5 89.6096C0.5 91.9733 2.41668 93.89 4.78044 93.89H30.5708C31.1446 89.9756 32.6312 86.2511 34.9106 83.0174C37.1899 79.7838 40.1981 77.1318 43.6919 75.2757C43.0194 74.8859 42.3132 74.5497 41.5734 74.2669C31.3631 70.3716 20.076 70.3716 9.86562 74.2669C7.11161 75.3184 4.7417 77.1812 3.06937 79.6088C1.39703 82.0365 0.501071 84.9146 0.5 87.8625V89.6096ZM39.3977 51.0306C38.7376 54.1697 37.0178 56.9863 34.5271 59.0077C32.0364 61.0291 28.9262 62.1324 25.7184 62.1324C22.5106 62.1324 19.4004 61.0291 16.9097 59.0077C14.4189 56.9863 12.6992 54.1697 12.0391 51.0306L11.741 49.6137C11.305 47.5338 11.312 45.3853 11.7616 43.3083C12.2111 41.2313 13.0931 39.2722 14.3501 37.5587L14.8316 36.903C16.086 35.1938 17.7252 33.8039 19.6165 32.8459C21.5079 31.8879 23.5982 31.3887 25.7184 31.3887C27.8385 31.3887 29.9289 31.8879 31.8202 32.8459C33.7116 33.8039 35.3508 35.1938 36.6052 36.903L37.0867 37.5587C38.3437 39.2722 39.2257 41.2313 39.6752 43.3083C40.1247 45.3853 40.1317 47.5338 39.6957 49.6137L39.3977 51.0306ZM142.954 93.89H117.161C116.587 89.9758 115.101 86.2514 112.822 83.0178C110.543 79.7842 107.536 77.1321 104.042 75.2757C104.712 74.8859 105.417 74.5497 106.158 74.2669C116.369 70.3716 127.656 70.3716 137.866 74.2669C140.62 75.3184 142.99 77.1812 144.662 79.6088C146.335 82.0365 147.231 84.9146 147.232 87.8625V89.6096C147.232 90.7444 146.781 91.8328 145.979 92.6355C145.177 93.4381 144.089 93.8894 142.954 93.89ZM108.332 51.0306C108.992 54.1697 110.712 56.9863 113.202 59.0077C115.693 61.0291 118.803 62.1324 122.011 62.1324C125.219 62.1324 128.329 61.0291 130.82 59.0077C133.311 56.9863 135.03 54.1697 135.69 51.0306L135.988 49.6137C136.424 47.5338 136.417 45.3853 135.968 43.3083C135.518 41.2313 134.636 39.2722 133.379 37.5587L132.898 36.903C131.644 35.1938 130.004 33.8039 128.113 32.8459C126.222 31.8879 124.131 31.3887 122.011 31.3887C119.891 31.3887 117.801 31.8879 115.909 32.8459C114.018 33.8039 112.379 35.1938 111.124 36.903L110.643 37.5587C109.386 39.2722 108.504 41.2313 108.054 43.3083C107.605 45.3853 107.598 47.5338 108.034 49.6137L108.332 51.0306Z" stroke="#2C1E16" stroke-linecap="round" stroke-linejoin="round"/>
</svg>
